<?xml version="1.0" encoding="UTF-8"?>
<svg id="Layer_1" xmlns="http://www.w3.org/2000/svg" version="1.1" viewBox="0 0 559.93 556.06">
  <!-- Generator: Adobe Illustrator 29.6.1, SVG Export Plug-In . SVG Version: 2.1.1 Build 9)  -->
  <defs>
    <style>
      .st0 {
        fill: #fff;
      }
    </style>
  </defs>
  <rect class="st0" x="-18.14" y="-143.65" width="595.28" height="841.89"/>
  <circle class="st0" cx="279.5" cy="277.29" r="263.07"/>
  <g>
    <path d="M506.05,266.78c.85.82-3.73,4.96-4.17,6.02l7.42.93-3.09,9.04c.79,1.41,2.92,3.06,3.08,4.67.35,3.51-3.8,8.38,1.86,10.39l2.78-9.43c-.06-.5.9-.38,1.14-.28,1.45.62,8.17,16.5,10.45,18.52l-.03-24.83c1.21-1.39,1.31-4.78,1.42-6.93.36-6.73.1-13.57.54-20.31l5.05-2.43.18-2.86-11.79-51.51c9.86,27.32,16.48,64.61,16.69,67.85,8.04,127.26-86.34,243.29-210.36,266.12C140.14,566.17-19.29,393.89,30.01,210.04,57.45,107.71,139.49,39.49,242.64,21.26c31.6-5.59,75.15-2.65,105.8,6.59,3.35,1.01,6.78,1.78,10.19,2.56l-.92.92c29.88,8.82,57.14,24.48,82.04,42.88-2.36,1.59-4.7,2.25-7.1,4.02-7.05,5.21-8.91,11.59-13.57,18.42-3.6,5.27-12.13,15.87-17.11,19.51-2.78,2.03-6.51,3.46-7.14-1.2-.48-3.51.04-7.27-.02-10.6-.12-6.12-.4-12.21-.49-18.33l-3.69,1.18c-10.41,11.87-19.19,25.28-29,37.75-.69.18-1.04-.56-1.15-1.16-.86-4.83.51-12.17.92-17.15.37-4.39.38-8.86,1.39-13.2-5.94-1-7.22,4.92-10.21,8.56-2.7,3.28-6.57,6.23-10.43,8.01-1.65-1.13-1.14-3.38-2.06-5.24-1.64-3.34-6.73-7.17-10.37-4.77-4.95,3.26-9.82,14.44-7.88,20.24,2.56,7.67,10.62-1.35,13.85-2.23.99-.27.67.47.63,1.09-.48,7.11-5.49,18.25-11.31,22.53-5.8,4.26-10.34-1.44-11.61-6.93-2.3-9.96,1.53-19.72,5.28-28.61.18-.42,1.01-1.18.31-1.54-7.16,6.92-13.03,18.2-14.6,28.04-.19,1.17.19,2.52-.02,3.68-.51,2.8-7.95,11.37-10.47,12.7-7.35,3.89-6.64-10.33-6.19-14.07l3.94-22.02c-9.16,7.52-9.46,19.24-15.7,28.79-1.61,2.46-11.38,14.51-13.59,14.7-1.55.14-3.16-3.51-3.36-4.84-1.49-10.1-.14-26.17.89-36.57.93-9.37,2.4-18.94,6.27-27.57l61.87-14.38c-14.2-.02-28.73,1.56-42.74,3.84-4.64.75-12.08,3.13-16.35,3.13-.76,0-1.28.32-1.16-.7.13-1.07,2.05-5.61,1.39-6.27-2.46.02-5.63-.61-8.03.09-2.08.6-3.12,7.49-4.01,9.43l-55.61,17.17-.95.89c2.93.9,3.82,4.46,2.26,6.91-.64,1.01-9.46,4.61-10.74,4.38-1.99-.36-4.24-3.57-3.52-5.64.45-1.3,7.11-4.57,8.29-6.09l3.22-.48c-1.6-3.78-6.07.93-9.19.77-.55,4.24-6.4,4.73-7.94,8.96l4.56,2.38c1.07,6.25-7.39,4.24-11.23,5.69l-.69-.73c.62-3.7-1.54-3.21-3.31-5.03-1.71-1.76-1.05-3.64-4.38-3.48-3.91.19-4.82,2.95-7.45,5.1-1.79,1.46-8.76,7.1-10.29,7.78-1.72.77-3.88.76-5.79,1.62-2.16.97-3.92,3.03-6.14,4.06-2.19,1.02-6.28,2.53-8.52,1.88l-15.37,22.67-.88-.64,10.4-20.67c.91-1.44,2.6-.74,4.06-1.04,2.24-.46,2.52-1.74,3.34-3.61,4.1-9.32,9.38-35.47-5.42-37.67-4.25-.63-12.6,3.48-16.44,5.62-33.38,18.6-56.42,56.7-64.82,93.23-.32,1.38-3.97,18.61-2.77,18.55l4.86-.47-.02-2.94c1.66-1.66,3.74.2,5.38,1.06-1.25,5.4-3.39,10.65-4.29,16.15-7.38,45.11,43.52,4.34,54.59-8.45,9.61-3.21,3.88,4.15.88,7.83-10.13,12.41-31.3,30.47-48.38,28.47-12.73-1.49-14.61-16.76-15.13-27.04-.19-3.81.23-7.59.48-11.37-1.29,1.01-2.65-.24-3.83.06-.34.09-3.18,2.83-3.34,3.19-1.14,2.51.76,7.04.2,9.94-.2,1.02-1.11,1.59-1.35,2.82-1.16,6.04-.87,12.4-1.47,18.46-.48,4.82-2.73,9.79-3.18,14.89-.36,4.02.28,8.06.01,12.07-.46,6.97-3.03,13.93-1.88,21.3.57.43,1.07-.96,1.69-1.08,3.67-.69,1.88,7.95,2.22,9.68s1.76,3.42,2.34,5.08c.94,2.71.95,6.61,3.48,8.33-.21-.6.47-1.37.47-1.62v-10.43c3.1-.71,4.87,5.36,6.26,6.02,1.02.48.8-2.51,2.77-2.59,1.58-.07,2.92,2.22,4.45,3.25,2.61,1.75,4.44,1.91,7.55,1.6,2.41-.24,5.77-2.09,7.48-2.04,2.49.07,2.67,2.72,3.75,2.92.47.09,1.82-.39,2.71-.39,1.61,0,6.06-.51,6.3,1.65.19,1.69-1.93,2.98-.29,4.9,2.22,2.6,10.51.64,8.15,6.44,3.81.96,7.68,2.71,11.49,3.59,2.28.52,9.1,1.95,11.06,1.97,1.53.01,4.82-2.98,7.12-2.31-1.6-2.79-5.2-4.3-7.2-6.47-1.18-1.28-1.96-3.82-2.66-4.53-1.2-1.21-5.78-1.69-7.78-3.58-1.06-1-1.62-2.72-2.57-3.92-3.78-4.8-7.48-6.28,2.12-7.47.57-.83-4.04-7.66-5.11-8.11s-1.87.45-2.89.19c-.76-.19-1.52-1.67-2.53-2.15-2.18-1.05-4.15,0-6.34-2-4.36-3.97-1.71-10.03-3.94-14.95,2.72-1.75,5.57-2.67,7.62-5.39.55-1.23-4.72-5.23-.49-9.76.97-1.04,3.39-2.17,3.87-3.56.64-1.84-1.16-1.42-1.23-2.75-.1-2.07,5.91-2.36,6.65-3.86s-.39-4.66,1.14-6.3c3.16.5,5.2.23,8.09-1.09,1.26.31.56,4,.73,5.07,1.19,1.18,8.55-3.94,10.04-4.07,1.18-.1,2.29,1.62,3.39,1.08,1.95-1.35,2.79-3.88,4.4-5.37,1.51-1.39,3.11-2.82,4.64-4.17,1.17-1.03,4.61-3.07,5.15-4.16.4-.82-.57-1.65-.71-2.57-.4-2.77,1.07-3.65,2.08-5.76,1.24-2.6.06-4.5,4.5-4.08,3.34.32,3.27,2.25,4.39,2.6,4.25,1.34,2.91-3.5,4.31-4.33.89-.52,3.25-.1,4.67-.43,3.19-.73,4.07-4.73,6.78.67h8.02c-1.02-2.85.21-4.27,1.36-6.68-.13-.54-2.43-1.51-2.96-2.62-.57-1.19-.36-4.71-1.93-4.97-.49-.08-1.18.38-1.76.32-2.83-.31-2.97-2.25-4.47-2.97-.55-.26-1.34.43-1.81-.47-.04-.88,3.92-3.17,4.84-3.96,1.28-1.09,3.03-2.55,4.21-3.67,1.6-1.53,5.53-6.92,7.17-7.68,1.59-.73,3.44,2.3,4.67,3.22,4.94,3.69,10.11,1.68,14.93-1.21,5.76-3.45,10.09-9.24,13.78-14.74,1.43-.34.76,1.18,1.28,2.18,7.07,13.58,21.71-6.11,24.21-13.77,1.42,1.13.85,3.06,2.1,4.61s4.5,2.66,6.37,2.25c5-1.11,11.94-14.74,14.94-18.91l.99,6.42c1.05,4.76,4.92,9.83,10.39,8.19,1.69-.51,6.77-5.62,8.1-7.2,1.45-1.72,8.12-12.2,8.82-12.5.21-.09,1.16-.2,1.14.23-.02,4.32,2.09,9.58,6.22,11.38,7.21,3.14,14.88-8.1,19.05-12.55,1.7,4.97,6.09,7.05,11.13,7.41,15.89,1.11,27.93-17.95,26.88-32.43,5.49-3.21,9.52-8.06,14.37-12.05.07,3.68-.99,7.58-1.18,11.33-.18,3.6.33,7.16.39,10.68.02,1.3-1.35,8.56.79,8.57l28.38-37c.89-.26,1.44.2,1.52,1.09.81,6.39-1.12,15.64.11,21.67.68,3.34,5.38,7.2,8.94,4.97,4.95-3.1,15.53-15.65,19.68-20.64,1.99-2.39,3.86-4.89,5.34-7.63h1.16c-.74,2.46-1.14,8.09,1.87,9,5.49,1.66,16.22-3.31,19.67,1.68.58.84,1.77,4.23,1.42,5.07s-2.86,2.32-3.74,3.24c-6.47,6.8-12.72,14.07-17.37,22.26l6.49.47c-1.65,3.82-3.7,8.88-1.39,12.76,2.01,1.23,8.81-4.35,10.45-5.8,1.73-1.54,3.35-3.35,4.86-5.11-4.26.8-8.02-1.84-12.05-2.79-.81-1.1,4.98-7.05,5.78-8.35l8.58-7.4c1.1,5.94-1.7,11.7-1.84,17.61,2.15-.57,4.63.08,6.91.21,1.87.11.16,3.64-.34,4.74-3.35,7.54-9.97,13.71-17.71,16.59-6.26,2.33-14.47,1.49-15.28-6.49-.4-3.97,1.11-12.36,3.29-15.71.45-.69,1.37-.49,1.33-1.2-2.21-.86-4.46-1.1-6.73-1.85-2.32-.77-4.63-3.07-7.11-1.79-.44,2.72.14,4.9,2.2,6.73l.02.78c-4.43,3.62-10.57,4.89-14.33,9.34-1,1.18-1.99,3.55-3.01,4.4-1.4,1.17-3.78.9-4.88,3l3.64,1.22c.51.78-.45,6.11-1.11,6.88-.45.53-1.35.48-1.85.92-2.34,2.04-.57,3.29-1.39,5.1-.54,1.19-3.94,3.44-4.4,5.36l-6.47-1.87,2.33-3.27-1.41-3.9,4.17-1.86-2.36-.73-3.44,2.57-1.38-1.38-1.64,4.85,2.27.76-.43,4.57c-.92,0-1.79.04-2.68.33-12.57,4.09-32.78,28.65-41.32,39.33-23.54,29.42-43.4,61.72-61.44,94.75-15.53-16.24-28.88-34.48-43.35-51.66-9.8-11.63-22.14-27.2-33.58-36.87-1.24-1.05-5.54-4.18-6.97-4.14-.54.02-4.13,2.45-4.43,2.96-1.75,2.92,1.39,15.11,2.88,18.51,3.38,7.69,7.5,7.55,12.68,12.35,7.19,6.66,13.7,14.58,20.62,21.56,12.86,12.98,25.98,25.67,38.74,38.67.9.92,6.56,7.15,6.53,7.66l-76.79,142.52c-1.22.15-.73-.02-.93-.68-1.16-3.87-1.24-6.43-.13-10.35.35-1.23,2-4.1,1.97-4.96-.02-.68-.95-1.61-1.17-2.51-.74-2.95,1.56-5.5,2.13-8.37-4.67-.92-6.55-2.63-3.45-6.93,1.7-2.35,4.73-2.98,5.99-4.67,1.8-2.43.53-5.73,4.67-6.45.9-.16,2.98.2,3.39-.09.22-.15.34-1.71,1.01-2.47.54-.61,3.67-1.92,3.67-2.34-2.33-1.19-.86-7.31-.03-9.3,1.57-3.75,7.26-2.77,7.47-7.4.05-1.09-.41-1.94-.41-2.79,0-2.82,4.84-2.98,6.45-4.11.78-.55,9.72-10.39,10.37-11.41.47-.74.85-1.36.72-2.29-2.48.1-6.56-2.15-8.66-2.21-.78-.02-1.43.69-2.26.79-2.3.29-6.32-.49-7.52-2.63-.76-1.36-.79-4.18-1.45-5.04-.44-.57-3.05-1.51-4.23-2.72-1.54-1.57-2.31-3.85-3.7-5.57-.8-.99-5.83-6.83-6.36-7.08-1.63-.76-5.06-.69-7.16-1.18-1.23-.28-6.1-2.17-6.57-2.08-2.21.43-1.95,5.2-3.98,5.73-1.28.34-4.37-.88-6.27-.74-2.75.19-4.71,2.13-8.23,1.76-.89-.09-7.32-2.28-7.58-2.65-.88-1.24,1.92-3.47,1.66-3.73-1.64-.37-4.67-.76-6-1.65-1.65-1.1-2.76-4.21-5.4-5.26-2.97-1.19-9.33-.28-11.95-1.96-.56-.36-.9-.59-.75-1.33l1.33-.05.06-1.81c-4.03,1-8.77-2.3-12.28-2.32-.81,0-7.17,1.49-7.81,1.83-.62.33-.26,3.27-1.69,3.97-.78.38-1.92.17-2.81.43-.81.23-1.87.95-2.52.98-1.02.05-3.52-1.26-4.36-.67-.03,5.22-4.08,5.29-6.28,8.32-2.37,3.26-2.64,9.86-5.37,11.78-.94.66-2.52.55-2.83.98-.83,1.14-.18,4.68-.52,6.34-.25,1.21-1.53,2.3-1.53,3.59.25.57,4.55,3.48,5.38,3.9s2.06.22,2.89.7c1.15.66,3.83,6.17,4.96,6.77,1.53.82,3.18-1.93,5.1-.97.49.25,1.41,1.92,2.07,2.58.76.76,1.63,1.2,2.31,1.87.49.48.42,1.34,1.04,1.85,1.79,1.46,5.14.69,7.32.91,4.81.49,9.52,4.3,13.18,7.2,2.25-.57,6.98-2.54,9.09-1.7,1.4.56,2.71,3.12,3.91,4.47s2.95,1.49,3.11,3.75c.1,1.47-.85,4.07-.68,5.4.23,1.77,3.08,4.17,3.19,6.6.12,2.69-2.98,4.88-2.76,6.37,2.41,3.84,4.17,8.06,5.51,12.39.26.2,1.55-1.62,3.03-.5.49.37,5.01,7.69,5.12,8.36.57,3.55-3.88,1.42-5.32,3.49,1.62,3.26,3.64,6.33,5.13,9.66,1.46,3.28,4.03,12.3,6.38,14.48.89.83,1.89.41,2.77,1.4.99,1.12,1.57,4.14,2.28,5.6,2.37,4.87,3.07,3.86,2.84,9.68-.08,2.07,1.05,1.96,1.81,3.29,1.99,3.49,3.22,7.63,6.33,10.34,2.08-2.94.61-7.15,3.7-9.73.71-.59,2.86-1.32,2.94-1.46.27-.45-.04-1.62.18-2.36.43-1.43,1.36-2.83,1.74-4.3-.04-1.76-2.09-1.66-2.21-1.76-1.75-1.42-2.73-7.33-2.41-9.58,2.31-.25,4.83-.39,7.05-1.06,15.48-4.68,21.35-17.18,28.26-30.61,12.36-24.04,21.96-49.43,33.82-73.71,5.58-11.43,11.71-22.63,17.49-33.96.33-.64.55-1.3.52-2.02l80.19,78.58c1.22.63,3.45-3.44,4.38-4.45.75-.81,1.89-1.17,2.57-2.07l-79.03-81.33c-.58-1.06-.2-2.08.13-3.12,2.06-6.48,10.06-17.72,13.62-24.38.64-1.2,1.98-5.31,2.71-5.67l1.79.33c.06,1.97.44,5.38,1.53,7.04.96,1.45,2.3-.38,1.67,3.21-.18,1-1.52,2.6-.05,3.06,1.51.47,6.78-.99,8.51-1.55.63-.2,1.19-.96,1.73-1.08.26-.06,5.13.36,5.38.45,1.08.35,2.91,6.19,6.33,4.56l-.46,5.1,3.4-.07c1.61-.74.31-2.16,1.51-3.11.77-.62,8.22-2.7,8.54-2.37.1,1.27-.45,2.82.69,3.7l3.01-.92-.43,6.46,2.51.5c-.03-3.84.62-2.82,2.53-4.44,1.5-1.27,2.56-3.19,4.83-3.02l.79,3.25,2.26.78c-.14,3.04-3.09,4.11-.89,7.13l7.41-3.71c.28-.38-2.04-3.85-.83-4.98,3.02-1.5,6.1.7,9.34-.62l1.52,2.33,1.79-.9c1.64,1.44-.06,3.68.23,5.55l3.19-.06,1.22-5.04c2.58-1.81,2.89,1.94,4.15,3.27.98,1.04,2.32,1.2,3.25,2.31,2.71,3.26,2.18,7.59,2.59,11.31.1.91.83,1.67.93,2.8.18,1.93-.66,3.72-.44,5.98.29,2.96,3.04,6.99,3.15,8.86.14,2.54-3.82.98-2.64,5.93.2.85.99,1.37,1.18,2.06.71,2.58-.94,5.59-1.74,8l2.26.52c.25.29.08,2.28-.05,2.86-.44,1.93-8.02,16.2-9.38,17.07-.67.43-1.3-.16-1.55,0-1.22.79-4.85,9.07-6.39,11.02-1.89,2.38-4.12,2.92-5.98,4.68-1.77,1.67-3.08,4.74-5.32,6.25,6.86,7.02,14.07,13.77,20.63,21.08.76.85,4.96,5.3,4.39,6.03-11.42-4.58-22.14-11.56-31.51-19.46-1.48,2.08-2.96,6.61-4.42,8.33-.76.89-1.8.77-2.09,1.26-.68,1.14-1.2,5.27-2.07,7.1-.66,1.4-2.12,2.44-2.45,4.04-.4,1.98.13,4.21-.22,6.27-.27,1.63-2.89,6.14-2.64,7.01.18.62,1.41.48,1.71,2,1.22,6.09-2.81,10.31-3.16,16.12l1.89.45c1.39.95-.39,9.15-.5,11.13-.04.61-.41,2.37.71,2.1,4.49-3.27,11.78-11.96,17.27-12.86,1.7-.28,3.71.24,5.2-.36,1.7-.68,7.95-7.02,10.26-8.75,2.52-1.89,8.3-4.73,9.95-6.27,1.62-1.51,3-4.35,4.83-5.82.01-1.15-5.35.01-4.42-2.54.23-.46,7.21-6.51,7.68-6.72.94-.41,1.94-.09,2.89-.35,2.29-.62,4.39-5.22,5.92-7.06,1.31-1.58,3.08-2.83,4.35-4.45,3-3.83,5.33-8.83,8.9-12.45-.1-1.81-3.9-2.3-2.85-4.21.75-1.36,6.19-4.09,7.68-5.31,2.24-1.83,3.46-5.04,5.34-7.22l-1.26-4.07c-1.47-.19-4.34-.5-4.13-2.62l5.34-5.83c2.01-1.56,2.6,1.55,3.5,2.6,1.23,1.43,3.02-1.48,4.58-1.69.6-1.7-2.15-2.26-1.75-3.79,2.63-3.59,5.14-4.85,8.92-1.75,2.5-3.21,6.03-1.6,9.11-2.98,4.01-1.79,1.69-3.53,2.4-4.78.3-.53,3.97-1.77,4.34-2.4.29-.49-.3-1.22-.04-1.84.14-.33,4.69-4.8,5.17-5.05,2.38-1.25,2.7.39,4.56.42,1.77.03,4.63-1.41,6.75-1.17,1.04-.5,1.19-2.91,1.99-3.81,1.19-1.34,5.64-2.24,6.11-3.36.19-.44-.34-1.55-.15-2.47.23-1.12,1.35-1.67,1.53-2.18.28-.8-.64-1.53.23-3.06,1.71-3,4.09-.94,6.05-1.83.33-.15,4.35-4.71,4.84-5.35.32-.43,2.02-3.26,2.04-3.52.06-.69-.87-1.3-1.11-1.99-1.22-3.53,2.89-2.76,3.43-4.98.24-.99-.7-1.89-.68-2.69.02-.47.61-1,.61-1.43,0-1.09-.54-2.25-.32-3.43l-4.11-.06c-.89-.58.84-3.28-3.1-3.23-2.16.03-2.15,3.94-4.24,4.13-1.74.16-3.56-1.88-5.12-2.15-1.26-.22-2.34.63-3.15-.02-1.51-1.36-1.46-5.93-2.29-7.01-.5-.64-1.48-.16-2.14-1.57-.35-.74-2.37-10.99-2.29-11.64.07-.56.29-.82.72-1.15.44.3.98.79,1.5.86.56.08,4.64-2.78,4.89-3.29.84-1.7-.13-3.26-.13-5-.13-.14-2.09,1.18-2.69-.79-1.02-3.37,2.95-6.68,3.66-9.82l1.27.04,1.22,1.62c3.61-.9,6.21-4.53,9.68-1.28l4.45-4.89,3.26,1.67v-4.17h8.81ZM348.9,35.51c-42.53-10.92-87.39-11.6-130.17-1.54-30.06,7.07-60.71,19.9-83.52,40.93l16.03-5.55c1.87.03.49,2.87,1.82,3.69,2.43-2.41,5.58-3.8,8.58-5.32,1-.5,2.19-.5,3.19-.98,1.94-.93,5.3-3.91,7.25-3.85.79.02,1.34.71,1.95.8,1.22.18,20.12-7.95,22.54-9.25,3.39-1.82,9.15-6.77,12.35-7.61,1.37-.36,2.61.33,4.27.16,4.28-.43,12.28-3.6,17.62-4.66,2.9-.57,7.92-2.41,10.59-1.52,1.23.41,1.15,1.77,2.02,1.67,1.2-.14,3.57-1.55,5.01-2,8.47-2.64,20.94-3.8,29.74-2.6,2.97.4,8.05,2.31,10.71,1.79,2.15-.43,2.57-5.03,5.21-5.46l16.13.84c2.59,0,5.06-2.64,7.42-2.81,2.64-.19,5.49,2.39,8.38,2.77,4.34.57,8.83-.89,12.94-.43,2.44.27,5.08,2.24,7.51,2.18.53-.01,2.35-.54,2.45-1.25ZM296.98,95.29c-.31-.31-5.67,2.48-6.83,2.67-1.25.21-6.26-.37-6.09,1.65.11,1.33,2.06,3.89,3.77,3.01,3.47-2.2,8.11-2.69,9.15-7.32ZM155.6,108.27c-1.74.08-2.53-2.03-3.95-2.31-3.08-.61-7.58,1.53-10.89.91-.03,1.56.16,3.12-.2,4.67-.65,2.81-3.9,3.73-2.08,7.34,1.93.34,3.46-.87,5.33-1.31.92-.22,2.08.1,3.11-.13,1.2-.27,2.16-1.74,3.57-1.77-.24-.85-2.14-.86-1.33-2.26.18-.31,4.99-3.05,5.94-4.02.38-.38.67-.41.49-1.12ZM382.34,149.45l2.92-.34c.69.18,1.05,3.31,3.2,3.09s6.29-5.95,8.18-7.56c1.29-1.1,5.01-3.09,5.6-4.14.64-1.15.23-2.14.66-3.05s6.76-4.13,2.35-4.65c-1.69-.2-12.57,1.34-13.27,2.19-.56.69-1.04,3.16-1.82,3.63s-7.42.94-8.24.12l-1-3.86c-2.8-1.16-2.99,2.98-4.68,4.2-1.58,1.14-4.28.37-5.77,2.11-.41.48-1.82,4.46-1.64,4.62l4.14.46c1.56-4.49,2.66-6.91,7.81-4.77,4.23,1.75-2.32,4.04-1.76,4.77,2.14-.45,3.04,3.02,3.31,3.18ZM356.38,150.84l-1.92-5.5-4.12,4.03.88,2.91-8.34-1.64-2.35,4.16c2.47.97.9,2.41.96,4.43l21.08,1.4c1.63.31,1.19,1.84,2.32,1.9.45.02,5.04-.44,5.27-.58.52-.32,1.18-5.01,3.16-.37l8.96-.49-.93-3.71c-1.46-.22-3.37,1.57-4.65.7-.33-.23-.31-1.14-.75-1.21-1.74-.25-3.3,2.2-2.95-2.74-1.16.72-3.86-.31-4.19-.26-3.26.51-5.71,5.34-9.96,1.21l.7-4.66-3.18.4Z"/>
    <path d="M97.19,145.8c4.59.82,2.98,1.42,3.37,4.29.2,1.46,1.03,3.31.81,4.73-.28,1.84-2.54,1.85-2.75,2.15-.06.08.36.66.26,1.02-.14.52-.79.97-.73,1.43s1.09.9,1.29,1.55c.72,2.32-3.3,3.4-4.11,5.23,1.38-.38,4.15,1.39,4.88,1.4.85.01,2.88-2.46,4.27-2.71,1.5-.28,2.57.85,4.01.82,2.63-.05,5.6-2.5,7.59-2.66,1.34-.11,2.12,1.16,3.49.78,1.52-.42,4.45-4.82,5.65-4.57,1.74.37-1.41,4.7.94,4.65,2.51-.43,1.48-2.55,1.83-3.26.32-.66,1.56-.86,1.87-1.4.44-.75.22-2.36.66-3.51.42-1.08,1.66-1.72,1.83-2.37.4-1.51-2.57-2.99-.86-5,.32-.38,4.38-3,4.9-3.03l4.36,1.86c-.24-1.53-1.19-2.94.28-4.12,2.08-1.67,3.49-.52,5.4-.62,1.44-.08,2.66-1.08,4.05-1.28.07,1.25-.3,2.46-.83,3.57-2.1,4.33-6.98,9.62-9.44,14.2-2.22,4.13-3.6,8.09-.58,12.33,2.77,3.9,5.72,1.93,9.47.96-1.01,7.46-8.91,19.77-5.33,27.34.91,1.93,2.16.75,2.09,2.31l-4.41,2.19c-2.82-1.99-3.74-4.08-3.95-7.5-.29-4.84,2.5-9.33-2.06-13.24-1.09-.93-3.65-1.14-4.19-2.3-.48-1.04.06-2.5-.44-3.27s-3.12-.48-4.16-2.33c-.61-1.08.1-2.36-2.05-2.35l-.3-3.65c-3.06.92-1.62,3.97-2.51,6.3-.11,1.12,1.29,1.21,1.68,1.73,1.41,1.85-.95,4.29-.78,4.49,3.21.36,4.09,2.17,2.42,4.98-.65,1.09-1.57,1.2-2.21,1.96-3.86,4.65-14.58,18.79-19.7,20.62-1.41.51-2.59.05-3.9.27-2.2.37-3.16.34-5.07.57-.86.1-1.32,1.09-2.27,1.14-.55.03-3.73-.6-4.2-.88-2.89-1.71.54-4.51.54-4.79,0-.25-1.08-1.14-1.23-1.96-.39-2.17,2.48-2.78,3.64-4.06.47-.52.5-1.42,1.13-2.11.23-.25,5.21-3.14,2.05-2.59-2.11.37-4.28.97-6.44,1.21-.82-.95,3-4.1,3.71-4.86.55-.59.63-1.48,1.06-1.95,1.11-1.21,4.61-1.99,5.45-3.12s1.2-4.4,2.19-6.15c.67-1.18,4.45-4.71,3.8-5.69-1.78-.69-3.67.18-4.43-1.89l-3.44,1.89.46-3.24c-1.11.03-1.91.72-3.05.88-2.52.36-4.37-.91-5.2,2.68-.72,3.12.64,2.88-2.45,5.43-1.28,1.06-8.45,4.7-7.38,6.29,9.07,1.18,3.4,3.42,3.4,5.8,0,1.27,2.84,2.45,2.09,5-.5,1.69-7.32,5.61-9.15,7.1-.58.47-.85,1.52-1.43,1.81-2.66,1.33-5.66-1.36-7.64-1.16-.78.08-1.96,1.22-3.12,1.53-4.08,1.12-4.77-1.1-4.56-4.78-7.75,2.69-6.15-1.64-4.87-6.96,6.85-28.43,21.88-55.91,40.11-78.54,5.35-6.64,20.63-23.88,28.7-25.53,8.67-1.77,7.28,8.74,7,14.41-.21,4.34-2.51,20.37-4.71,23.56-.64.93-2.25,1.53-3.19,2.37-2.76,2.48-2.73,4.5-6.96,2.29-1.03,1.62-2.42,4.73-4.28,5.48-2,.81-3.88-.27-5.13.39-2.07,1.1-5.12,4.98-7.27,6.44Z"/>
    <path d="M458.07,233.87c3.67.45,7.7,5.1,9.42,8.19,1.53,2.76.37,2.87.65,4.5.17.99,3.46,2.73,1.97,5.4l4.9,2.96c1.39,1.56.38,4.3,1.33,5.62.4.55,3.69,2.81,4.53,3.35,1.43.94,6.52,2.2,2.42,4.45-4.59,2.52-11.25-5.02-12.46-3.89.23,2.8-4.23,1.65-5.92,3.36-.67.68-.59,2.22-1.8,3.06-1.1.77-2.96.79-4.21,1.36-2.7,1.23-8,6.13-8.96,1.01l-7.87,2.32c.13,1.04.86,1.63.01,2.54-.71.77-5.97,2.49-7.45,3.23-1.81.9-3.03,2.82-5.08,2.57v-2.32s-6.49.93-6.49.93l1.39,2.77-7.88,1.16c-2.66,1.77.5,14.57.47,17.62-.03,2.23-1.93,5.14-1.88,6.97.03,1.16,1.58,3,2.03,4.47,1.77,5.8-.77,6.17-1.04,10.41-.15,2.33,1.78,4.28-1.35,3.93l-.54,3.19h-1.39c-.73-4.09-1.07-8.95-2.16-12.91-1.51-5.49-3.98-8.63-1.65-15.13l-.62-11.39c2.32-.43,2-1.87,1.59-3.83-.36-1.74-2.53-7.08-3.4-8.68-.7-1.28-5.25-5.06-2.93-6.14,3.29-1.52,5.1,3.85,7.53,3.88,1.98.03,3.47-2.01,4.41-3.52l-2.78.23c.55-11.23-2.06-22.36-1.86-33.59l-2.77-22.95c1.32-.25.83.92,1.96,1.5,4.14,2.12,4.14-1.09,6.71-1.41.96-.12,2.26.45,3.59.38,3.57-.2,5.43-2.24,8.37-3.71,1.18.03,1.81,1.9,2.86,2.21,1.3.38,3.05-.09,4.49.15,1.59.26,11.67,3.72,12.13,4.58.81,1.51-1.54,2.51-1.84,3.7-.22.88.59,1.94-.01,2.83-.96,1.42-5.09-1.42-6.77-.28-.63.43-.51,1.78-.87,2.27-.32.43-1.18.3-1.63.78-1.58,1.67-2.87,3.45-4.89,4.85.02.75,7.12,3.89,8.15,3.95,1.7.1,1.43-1.24,2.24-1.9,2.27-1.82,3.9,3.37,5.1,4.24,1.34.97,8.16-.5,8.14-1.19-2.94-1.1-1.74-3.85-2.81-5.52-.74-1.14-2.84-.98-2.74-2.59,2.44.21,5.27-.29,7.65,0Z"/>
    <path d="M380.87,197.24c2.96-6.68,4.38-.14,6.54,1.14,1.37.81,6.25,1.11,6.51,1.47.82,1.63.67,3.6,1.19,5.2,5.75,17.66,11.95,41.08,13.12,59.65.19,3.03.3,6.25-.93,9.03-.64.48-2.97-3.88-3.44-4.2-.89-.62-2.03-.25-2.6-.64-.72-.49-.88-4.09-1.23-5.26-.41-1.32-1.79-3.44-1.91-4.13-.27-1.65,2.71-8.23-.71-8-3.55,1.95-3.41-2.31-4.93-3.04-1.1-.53-2.93-.1-4.3-.34-6.79-1.19-1.64-6.34-2.2-6.84l-4.58.05-1.28,2.69c-.99.28-2.26-1.01-3.28-1.24-2.86-.66-1.53.7-2.43,1.51-1.32,1.18-5.43.35-6.84-.54-.77-.49-.81-1.53-1.72-1.55s-2.69,1.66-4.05,2.02-2.47.21-3.75.42c-.75.12-1.31.81-2.42.84-2.88.1-2.82-3.46-3.25-3.26-.62,1.18-2.76,1.01-3.37,1.5-.56.46-.28,2.11-1.73,2.22-.51.04-5.33-.68-5.61-.9-1.34-1.05-.54-3.49.28-4.68-2.83.22-4.06-.01-4.67,3.21-1.06.37-2.02-.9-2.88-.79-3.06.39-4.23,4.83-5.69,6.82-2.56,3.49-4.95,6.66-7.43,10.18-1.03,1.47-4.56,4.05-5.05,5.15-.45,1.03-.09,2.46-.67,3.39-.33.54-2.05.91-2.79,1.5-3.45,2.71-6.92,8.04-9.78,11.54-.6.73-1.31,2.23-2.3,2.1-.14-.81.1-1.44.36-2.18,4.23-12.19,20.55-32.3,28.86-42.98,8.61-11.07,28.9-38.47,39.69-45.13,6.68-4.12,5.89,2.63,11.26,4.08ZM393.4,242.68h-1.39s.47,1.39.47,1.39h.92s0-1.39,0-1.39Z"/>
    <path d="M255.72,91.58c-2.94,12.77-1.53,26.53-4.48,39.31-1.24,5.39-8.15,23.16-12.51,25.95-.64.41-1.39.86-2.17.91-4.62-.43-2.94-9.97-2.47-12.96.79-5.05,2.56-9.88,4.02-14.75l-3.7,1.39.91-2.09c-4.9-3.59-12.99.77-17.14,4.17-5.54,4.54-8.41,11.01-11.46,17.29-.3.63.3,1.28-1.04,1.02l6.03-16.01c-.02-1.03-1.51-1.18-1.99-2.17-.68-1.39.12-2.69-.1-3.17s-1.23-.68-1.64-1.23c-2.04-2.75-.77-5.94-1.58-8.49-.47-1.49-2.54-2.29-2.94-4.01-.74-3.23,1.32-5.78-.06-8.9,1.59-1.06,3.53-.69,5.08-1.18,2.16-.69,4.84-2.48,7.29-3.37,10.92-3.98,23.08-7.62,34.32-10.65.88-.24,5.24-1.46,5.66-1.06Z"/>
    <path d="M443.46,77.95l-.39.85c23.63,19.33,44.19,42.87,59.64,69.45,1.72,2.97,8.55,14.64,8.82,17.18.13,1.22-.47,2.1-.3,3.46.36,2.82,3.04,7.16,3.84,10.1,1.09,3.98,19.77,62.02,19.72,69.91-.06,9.41-19.45-50-20.61-51.4-2.61-3.15-4.69-8.98-7.7-12.26l.24-7.63-11.92-15.45c-1.11-2.55,1.96-3.42,1.79-4.52-2.94-5.46-6.51-10.54-9.62-15.89-.37-.63-1.24-2.96-1.38-3.06-.15-.11-1.02.42-1.94-.07-1.21-.63-5.79-5.98-6.57-5.98l-2.31,2.8c-1.33-.47-1.91-1.7-3.15-2.44-3.47-2.09-7.22-1.84-.33-5.01.84-1.24-13.76-5.62-15.3-4.16l-.84-6.22c4.45-3.32,11.42-1.13,16.6-.96-3.16-3.14-8.07-5.21-12.39-6.15-1.31-.29-3.18.3-4.08-.57-.69-2.67-.71-11.95-3.56-13.14-1.38-.57-6.29-.43-8-.3-2.68.21-14.71,3.9-15.8,2.34-2.28-3.26,5.08-13.74,7.44-16.26,1.1-1.17,6.66-6.5,8.12-4.62Z"/>
    <path d="M189.05,129.19c-.38.6.1,2.74-.08,3.64h1.86c.55,2.23-1.4,2.19-2.79,3.47-11.23,10.35-18.18,27.36-19.7,42.4-.72,1.6-8.71,7.56-10.57,8.43-9.06,4.24-4.47-7.64-2.98-11.78.96-2.67,6.78-14.67,6.33-16.28-.13-.49-.59-.73-1.09-.74-2.11-.05-7.24,4.23-9.4,5.45s-4.1,2.98-6.37.53c-4.67-5.04,4.8-14.9,6.88-19.49.89-1.97.43-5.05,3.06-5.05.21-1.35-1.21-2.32-1.27-3.55-.05-.95,2.92-5.17,3.6-5.52.82-.42,1.63.3,2.45.18.99-.14,1.95-1.52,2.98-1.71.97-.17,1.87.39,3,.31,1.29-.1,2.61-.94,3.83-1.3l1.4,2.77c4.32-2.95,10.46-2.07,9.05-9.26,2.39.99,3.67-.56,6.26-.49,3.38.09,7.52.82,6.63,5.25-.45,2.24-2.86,2.37-3.09,2.73Z"/>
    <path d="M180.19,159.26c9.03,2.29,15.62-3.88,18.99-11.6,1.1.62,1.09,2.48,1.84,3.48.69.92,2.47,1.46,2.73,2.4l-1.63,6.94c.14,1.87.31,5.29-.6,6.9-1.53,2.7-14.38,11.14-17.52,11.68-11.12,1.89-6.41-14.24-3.81-19.8Z"/>
    <path d="M233.91,133.73c-.58.09-.96.27-1.28.8-1.43,2.34-2.91,10.91-4.13,14.43-2.48,7.12-8.79,16.69-14.25,21.91-.82.78-1.77,1.55-3.01,1.36-.55-1.48-.55-2.78-.42-4.33.58-7,9.82-31.25,15.84-34.68,1.55-.88,7.38-2.11,7.25.52Z"/>
    <path d="M318.44,278.49c.71-.91,4.1-2.3,4.42-3.22.74-2.12-.86-3.44-.85-4.57.01-1.35,5.72-4.53,7.18-4.43,1.27.08,3.43,2.61,3.75,3.74.65,2.26-3.09,3.31-3.74,4.67-.37.77-.23,1.78-.61,2.63-2.34,5.2-7.7,9.33-10.97,14.07-3.28,2.27-2.43-4.76-2-6.17.32-1.05,1.62-2.02,1.99-3.11.38-1.15.02-2.57.82-3.59Z"/>
    <path d="M125.93,190.77c1.32,2.67-.49,4.54-.5,6.72-.02,3.31,3.58,6.51-3.2,6.26l.25,3.71c-3.95,2.52-8.66,3.33-13.24,3.02l-.23-1.18c2.25-1.99,3.66-4.68,5.57-6.95,2.09-2.5,7.45-9.07,9.55-10.85.52-.44,1.09-.82,1.81-.74Z"/>
    <path d="M408.7,217.64c-1.51.37-.81-2.02-1.13-3.27-4.45-17.03-8.65-22.88-20.66-34.96-.49-.49-1.09-.8-.92-1.63,7.27.93,11.98,7.17,15.37,13.13,4.66,8.19,6.4,17.41,7.34,26.73Z"/>
    <path d="M191.63,141.24c.69-.1,1.11.05,1.55.59,1.18,5.1-1.46,12.24-6.51,14.43-10.24,4.44-1.77-10.98,2.14-13.62.49-.33,2.36-1.33,2.82-1.4Z"/>
    <path d="M332.55,103.24c.53-.11,1.04-.19,1.52.14.67.41,1.2,2.9,1.33,3.78.12.79.53,5.37.44,5.87-.48,2.71-6.27,7.33-8.95,4.49-3.44-3.65,1.86-13.5,5.64-14.27Z"/>
    <path d="M200.56,146.27c-.7.75-.82-.07-.91-.7-.53-3.56-.66-8.06-4.22-10.16-1.11-.66-3.29-.43-3.21-2.11,8.89-6.39,10.23,7.03,8.34,12.97Z"/>
    <path d="M333.14,262.6c.54-1.9.8-3.84,2.61-5.03l3.84,2.07c.52,2.21-6.01,3.45-6.46,2.96Z"/>
    <path d="M151.42,198.65c.94,2.2-3.55,4.69-4.63,3.24-.71-.95,4.03-3.86,4.63-3.24Z"/>
  </g>
</svg>